<svg xmlns="http://www.w3.org/2000/svg" width="234.168" height="46.861" viewBox="0 0 234.168 46.861">
  <g id="Grupo_87" data-name="Grupo 87" transform="translate(-432.895 -335.144)">
    <g id="Grupo_85" data-name="Grupo 85" transform="translate(432.895 335.144)">
      <path id="Trazado_36" data-name="Trazado 36" d="M441.417,362.067a14.35,14.35,0,0,1-8.522-2.789l1.936-3.99a11.206,11.206,0,0,0,6.663,2.518c2.4,0,4.028-1.472,4.028-3.448,0-5.54-12.086-2.789-12.086-12.009,0-3.951,3.1-7.205,9.22-7.205a16.516,16.516,0,0,1,7.786,1.781l-1.7,4.068a12.8,12.8,0,0,0-6.159-1.433c-2.363,0-3.912.775-3.912,2.712,0,4.687,12.164,2.867,12.164,11.776C450.831,358.193,447.383,362.067,441.417,362.067Z" transform="translate(-432.895 -335.144)"/>
      <path id="Trazado_37" data-name="Trazado 37" d="M479.906,362.117V335.968h16.076v4.3h-11v6.43h8.406L493,351.192H484.98v6.7h11v4.222Z" transform="translate(-457.826 -335.581)"/>
      <path id="Trazado_38" data-name="Trazado 38" d="M527.994,362.117h-5.036V335.968h8.406c5.152,0,9.336,2.4,9.336,7.864a8.082,8.082,0,0,1-4.958,7.515c1.821,3.641,3.719,7.128,5.539,10.769h-5.966l-4.3-9.878c-1.162.039-1.937.039-3.021.039Zm2.557-22.2h-2.557v8.367h2.557c3.331,0,4.726-1.51,4.726-4.493C535.277,340.888,533.611,339.919,530.551,339.919Z" transform="translate(-480.657 -335.581)"/>
      <path id="Trazado_39" data-name="Trazado 39" d="M579.872,362.117H572.24l-7.631-26.149h5.927l5.656,21.694h.193L582,335.968h5.5Z" transform="translate(-502.746 -335.581)"/>
      <path id="Trazado_40" data-name="Trazado 40" d="M620.61,362.117V335.968h5.075v26.149Z" transform="translate(-532.444 -335.581)"/>
      <path id="Trazado_41" data-name="Trazado 41" d="M653.036,362.067c-7.36,0-11.312-4.881-11.312-13.6,0-8.135,3.912-13.326,11.312-13.326a16.389,16.389,0,0,1,8.91,2.208l-1.937,4.106a10.948,10.948,0,0,0-6.43-1.82c-4.339,0-6.508,3.06-6.508,8.794,0,6.043,2.169,9.142,6.431,9.142a12.131,12.131,0,0,0,6.9-2.4l1.627,4.106A15.461,15.461,0,0,1,653.036,362.067Z" transform="translate(-543.641 -335.144)"/>
      <path id="Trazado_42" data-name="Trazado 42" d="M694.1,362.117V335.968h5.075v26.149Z" transform="translate(-571.415 -335.581)"/>
      <path id="Trazado_43" data-name="Trazado 43" d="M726.329,362.067c-8.639,0-11.118-6.547-11.118-13.675,0-6.857,2.4-13.248,11.118-13.248,8.871,0,11.2,6.314,11.2,13.248C737.524,355.4,734.968,362.067,726.329,362.067Zm0-22.546c-4.571,0-5.772,4.145-5.772,8.832,0,5.191,1.162,9.452,5.772,9.452,4.494,0,5.811-4.184,5.811-9.452C732.14,343.589,730.9,339.521,726.329,339.521Z" transform="translate(-582.613 -335.144)"/>
      <path id="Trazado_44" data-name="Trazado 44" d="M781.676,362.067c-7.011,0-10.382-5.694-10.382-13.636,0-8.6,4.222-13.287,10.5-13.287a13.5,13.5,0,0,1,7.67,2.091l-.813,1.549a12.067,12.067,0,0,0-6.9-1.937c-5.811,0-8.484,4.842-8.484,11.466,0,7.089,2.828,12.048,8.406,12.048a11.927,11.927,0,0,0,7.36-2.518l.62,1.549A13.725,13.725,0,0,1,781.676,362.067Z" transform="translate(-612.355 -335.144)"/>
      <path id="Trazado_45" data-name="Trazado 45" d="M821.192,362.117V335.968h1.936v26.149Z" transform="translate(-638.817 -335.581)"/>
      <path id="Trazado_46" data-name="Trazado 46" d="M845.312,362.117h-3.37l-7.554-26.149h1.975l7.167,24.522h.271l7.167-24.522h2.014Z" transform="translate(-645.815 -335.581)"/>
      <path id="Trazado_47" data-name="Trazado 47" d="M883.05,362.117V335.968h1.936v26.149Z" transform="translate(-671.621 -335.581)"/>
      <path id="Trazado_48" data-name="Trazado 48" d="M902.432,362.117V335.968h1.936V360.49h11.7v1.627Z" transform="translate(-681.9 -335.581)"/>
    </g>
    <g id="Grupo_86" data-name="Grupo 86" transform="translate(432.895 370.512)">
      <rect id="Rect치ngulo_22" data-name="Rect치ngulo 22" width="27.298" height="5.821" transform="translate(0)" fill="#245e98"/>
      <rect id="Rect치ngulo_23" data-name="Rect치ngulo 23" width="68.057" height="5.821" transform="translate(27.298)" fill="#f23a49"/>
    </g>
    <text id="Centro_de_Ayuda_SICDE" data-name="Centro de Ayuda SICDE" transform="translate(530.944 378.005)" font-size="16" font-family="gobCL" letter-spacing="-0.061em"><tspan x="0" y="0">Centro de Ayuda SICDE</tspan></text>
  </g>
</svg>
